# MagicaVoxel @ Ephtracy

# group
g Central Campus-Draft (1)-1

# material
mtllib Central Campus-Draft (1)-1.mtl
usemtl palette

# normals
vn -1 0 0
vn 1 0 0
vn 0 0 1
vn 0 0 -1
vn 0 -1 0
vn 0 1 0

# texcoords
vt 0.337891 0.5
vt 0.900391 0.5

# verts
v -63 0 63
v -63 0 -38
v -63 1 63
v -63 1 -38
v -18 0 63
v -18 0 40
v -18 0 34
v -18 0 -32
v -18 1 63
v -18 1 40
v -18 1 34
v -18 1 -32
v 23 0 63
v 23 0 -32
v 23 1 63
v 23 1 -32
v -57 0 63
v -57 0 40
v -57 0 34
v -57 0 -32
v -57 1 63
v -57 1 40
v -57 1 34
v -57 1 -32
v -15 0 63
v -15 0 -32
v -15 1 63
v -15 1 -32
v 63 0 63
v 63 0 -32
v 63 0 -38
v 63 1 63
v 63 1 -32
v 63 1 -38
v -63 0 63
v -63 1 63
v -57 0 63
v -57 1 63
v -18 0 63
v -18 1 63
v -15 0 63
v -15 1 63
v 23 0 63
v 23 1 63
v 26 0 63
v 26 1 63
v 63 0 63
v 63 1 63
v -57 0 40
v -57 1 40
v -18 0 40
v -18 1 40
v -57 0 -32
v -57 1 -32
v -18 0 -32
v -18 1 -32
v -15 0 -32
v -15 1 -32
v 23 0 -32
v 23 1 -32
v -57 0 34
v -57 1 34
v -18 0 34
v -18 1 34
v -63 0 -38
v -63 1 -38
v 63 0 -38
v 63 1 -38
v -63 0 63
v -57 0 63
v -18 0 63
v -15 0 63
v 23 0 63
v 26 0 63
v 63 0 63
v -57 0 40
v -18 0 40
v -57 0 34
v -18 0 34
v -57 0 -32
v -18 0 -32
v -15 0 -32
v 23 0 -32
v 26 0 -32
v 63 0 -32
v -63 0 -38
v 63 0 -38
v -63 1 63
v -57 1 63
v -18 1 63
v -15 1 63
v 23 1 63
v 26 1 63
v 63 1 63
v -57 1 40
v -18 1 40
v -57 1 34
v -18 1 34
v -57 1 -32
v -18 1 -32
v -15 1 -32
v 23 1 -32
v 26 1 -32
v 63 1 -32
v -63 1 -38
v 63 1 -38

# faces
f 3/1/1 2/1/1 1/1/1
f 4/1/1 2/1/1 3/1/1
f 9/1/1 6/1/1 5/1/1
f 10/1/1 6/1/1 9/1/1
f 11/1/1 8/1/1 7/1/1
f 12/1/1 8/1/1 11/1/1
f 15/1/1 14/1/1 13/1/1
f 16/1/1 14/1/1 15/1/1
f 17/1/2 18/1/2 21/1/2
f 21/1/2 18/1/2 22/1/2
f 19/1/2 20/1/2 23/1/2
f 23/1/2 20/1/2 24/1/2
f 25/1/2 26/1/2 27/1/2
f 27/1/2 26/1/2 28/1/2
f 29/2/2 30/2/2 32/2/2
f 30/1/2 31/1/2 33/1/2
f 32/2/2 30/2/2 33/2/2
f 33/1/2 31/1/2 34/1/2
f 37/1/3 36/1/3 35/1/3
f 38/1/3 36/1/3 37/1/3
f 41/1/3 40/1/3 39/1/3
f 42/1/3 40/1/3 41/1/3
f 45/1/3 44/1/3 43/1/3
f 46/1/3 44/1/3 45/1/3
f 47/2/3 46/2/3 45/2/3
f 48/2/3 46/2/3 47/2/3
f 51/1/3 50/1/3 49/1/3
f 52/1/3 50/1/3 51/1/3
f 55/1/3 54/1/3 53/1/3
f 56/1/3 54/1/3 55/1/3
f 59/1/3 58/1/3 57/1/3
f 60/1/3 58/1/3 59/1/3
f 61/1/4 62/1/4 63/1/4
f 63/1/4 62/1/4 64/1/4
f 65/1/4 66/1/4 67/1/4
f 67/1/4 66/1/4 68/1/4
f 76/1/5 70/1/5 69/1/5
f 77/1/5 72/1/5 71/1/5
f 78/1/5 76/1/5 69/1/5
f 78/1/5 77/1/5 76/1/5
f 79/1/5 72/1/5 77/1/5
f 79/1/5 77/1/5 78/1/5
f 80/1/5 78/1/5 69/1/5
f 81/1/5 72/1/5 79/1/5
f 82/1/5 72/1/5 81/1/5
f 83/1/5 74/1/5 73/1/5
f 84/2/5 75/2/5 74/2/5
f 84/1/5 74/1/5 83/1/5
f 85/2/5 75/2/5 84/2/5
f 86/1/5 83/1/5 82/1/5
f 86/1/5 80/1/5 69/1/5
f 86/1/5 85/1/5 84/1/5
f 86/1/5 84/1/5 83/1/5
f 86/1/5 82/1/5 81/1/5
f 86/1/5 81/1/5 80/1/5
f 87/1/5 85/1/5 86/1/5
f 88/1/6 89/1/6 95/1/6
f 90/1/6 91/1/6 96/1/6
f 88/1/6 95/1/6 97/1/6
f 95/1/6 96/1/6 97/1/6
f 96/1/6 91/1/6 98/1/6
f 97/1/6 96/1/6 98/1/6
f 88/1/6 97/1/6 99/1/6
f 98/1/6 91/1/6 100/1/6
f 100/1/6 91/1/6 101/1/6
f 92/1/6 93/1/6 102/1/6
f 93/2/6 94/2/6 103/2/6
f 102/1/6 93/1/6 103/1/6
f 103/2/6 94/2/6 104/2/6
f 101/1/6 102/1/6 105/1/6
f 88/1/6 99/1/6 105/1/6
f 103/1/6 104/1/6 105/1/6
f 102/1/6 103/1/6 105/1/6
f 100/1/6 101/1/6 105/1/6
f 99/1/6 100/1/6 105/1/6
f 105/1/6 104/1/6 106/1/6
