# MagicaVoxel @ Ephtracy

# group
g Central Campus-Draft (1)-10

# material
mtllib Central Campus-Draft (1)-10.mtl
usemtl palette

# normals
vn -1 0 0
vn 1 0 0
vn 0 0 1
vn 0 0 -1
vn 0 -1 0
vn 0 1 0

# texcoords
vt 0.337891 0.5
vt 0.900391 0.5

# verts
v -63 0 -17
v -63 0 -23
v -63 0 -63
v -63 1 -17
v -63 1 -23
v -63 1 -63
v -26 0 -11
v -26 0 -17
v -26 1 -11
v -26 1 -17
v 15 0 -11
v 15 0 -17
v 15 1 -11
v 15 1 -17
v -23 0 -11
v -23 0 -17
v -23 1 -11
v -23 1 -17
v 18 0 -11
v 18 0 -17
v 18 1 -11
v 18 1 -17
v 63 0 -17
v 63 0 -63
v 63 1 -17
v 63 1 -63
v -26 0 -11
v -26 1 -11
v -23 0 -11
v -23 1 -11
v 15 0 -11
v 15 1 -11
v 18 0 -11
v 18 1 -11
v -63 0 -17
v -63 1 -17
v -26 0 -17
v -26 1 -17
v -23 0 -17
v -23 1 -17
v 15 0 -17
v 15 1 -17
v 18 0 -17
v 18 1 -17
v 63 0 -17
v 63 1 -17
v -63 0 -63
v -63 1 -63
v 57 0 -63
v 57 1 -63
v 63 0 -63
v 63 1 -63
v -26 0 -11
v -23 0 -11
v 15 0 -11
v 18 0 -11
v -63 0 -17
v -26 0 -17
v -23 0 -17
v 15 0 -17
v 18 0 -17
v 63 0 -17
v -63 0 -23
v 57 0 -23
v -63 0 -63
v 57 0 -63
v 63 0 -63
v -26 1 -11
v -23 1 -11
v 15 1 -11
v 18 1 -11
v -63 1 -17
v -26 1 -17
v -23 1 -17
v 15 1 -17
v 18 1 -17
v 63 1 -17
v -63 1 -23
v 57 1 -23
v -63 1 -63
v 57 1 -63
v 63 1 -63

# faces
f 4/1/1 2/1/1 1/1/1
f 5/2/1 3/2/1 2/2/1
f 5/1/1 2/1/1 4/1/1
f 6/2/1 3/2/1 5/2/1
f 9/1/1 8/1/1 7/1/1
f 10/1/1 8/1/1 9/1/1
f 13/1/1 12/1/1 11/1/1
f 14/1/1 12/1/1 13/1/1
f 15/1/2 16/1/2 17/1/2
f 17/1/2 16/1/2 18/1/2
f 19/1/2 20/1/2 21/1/2
f 21/1/2 20/1/2 22/1/2
f 23/1/2 24/1/2 25/1/2
f 25/1/2 24/1/2 26/1/2
f 29/1/3 28/1/3 27/1/3
f 30/1/3 28/1/3 29/1/3
f 33/1/3 32/1/3 31/1/3
f 34/1/3 32/1/3 33/1/3
f 37/1/3 36/1/3 35/1/3
f 38/1/3 36/1/3 37/1/3
f 41/1/3 40/1/3 39/1/3
f 42/1/3 40/1/3 41/1/3
f 45/1/3 44/1/3 43/1/3
f 46/1/3 44/1/3 45/1/3
f 47/2/4 48/2/4 49/2/4
f 49/2/4 48/2/4 50/2/4
f 49/1/4 50/1/4 51/1/4
f 51/1/4 50/1/4 52/1/4
f 58/1/5 54/1/5 53/1/5
f 59/1/5 54/1/5 58/1/5
f 60/1/5 56/1/5 55/1/5
f 61/1/5 56/1/5 60/1/5
f 63/1/5 59/1/5 58/1/5
f 63/1/5 62/1/5 61/1/5
f 63/1/5 61/1/5 60/1/5
f 63/1/5 60/1/5 59/1/5
f 63/1/5 58/1/5 57/1/5
f 64/1/5 62/1/5 63/1/5
f 65/2/5 64/2/5 63/2/5
f 66/1/5 62/1/5 64/1/5
f 66/2/5 64/2/5 65/2/5
f 67/1/5 62/1/5 66/1/5
f 68/1/6 69/1/6 73/1/6
f 73/1/6 69/1/6 74/1/6
f 70/1/6 71/1/6 75/1/6
f 75/1/6 71/1/6 76/1/6
f 73/1/6 74/1/6 78/1/6
f 76/1/6 77/1/6 78/1/6
f 75/1/6 76/1/6 78/1/6
f 74/1/6 75/1/6 78/1/6
f 72/1/6 73/1/6 78/1/6
f 78/1/6 77/1/6 79/1/6
f 78/2/6 79/2/6 80/2/6
f 79/1/6 77/1/6 81/1/6
f 80/2/6 79/2/6 81/2/6
f 81/1/6 77/1/6 82/1/6
