# MagicaVoxel @ Ephtracy

# group
g Central Campus-Draft (1)-3

# material
mtllib Central Campus-Draft (1)-3.mtl
usemtl palette

# normals
vn -1 0 0
vn 1 0 0
vn 0 0 1
vn 0 0 -1
vn 0 -1 0
vn 0 1 0

# texcoords
vt 0.337891 0.5
vt 0.537109 0.5
vt 0.900391 0.5

# verts
v -63 0 -17
v -63 0 -63
v -63 1 -17
v -63 1 -63
v -18 0 -11
v -18 0 -17
v -18 0 -23
v -18 0 -63
v -18 1 -11
v -18 1 -17
v -18 1 -23
v -18 1 -63
v 23 0 -10
v 23 0 -17
v 23 0 -23
v 23 0 -63
v 23 1 -10
v 23 1 -17
v 23 1 -23
v 23 1 -63
v 27 0 -62
v 27 0 -63
v 27 1 -62
v 27 1 -63
v 42 0 32
v 42 0 31
v 42 1 32
v 42 1 31
v -57 0 -23
v -57 0 -63
v -57 1 -23
v -57 1 -63
v -15 0 -11
v -15 0 -17
v -15 0 -23
v -15 0 -63
v -15 1 -11
v -15 1 -17
v -15 1 -23
v -15 1 -63
v 26 0 -10
v 26 0 -17
v 26 0 -62
v 26 0 -63
v 26 1 -10
v 26 1 -17
v 26 1 -62
v 26 1 -63
v 43 0 32
v 43 0 31
v 43 1 32
v 43 1 31
v 63 0 -17
v 63 0 -23
v 63 0 -63
v 63 1 -17
v 63 1 -23
v 63 1 -63
v 42 0 32
v 42 1 32
v 43 0 32
v 43 1 32
v 23 0 -10
v 23 1 -10
v 26 0 -10
v 26 1 -10
v -18 0 -11
v -18 1 -11
v -15 0 -11
v -15 1 -11
v -63 0 -17
v -63 1 -17
v -18 0 -17
v -18 1 -17
v -15 0 -17
v -15 1 -17
v 23 0 -17
v 23 1 -17
v 26 0 -17
v 26 1 -17
v 63 0 -17
v 63 1 -17
v 42 0 31
v 42 1 31
v 43 0 31
v 43 1 31
v -57 0 -23
v -57 1 -23
v -18 0 -23
v -18 1 -23
v -15 0 -23
v -15 1 -23
v 23 0 -23
v 23 1 -23
v 26 0 -62
v 26 1 -62
v 27 0 -62
v 27 1 -62
v -63 0 -63
v -63 1 -63
v -57 0 -63
v -57 1 -63
v -18 0 -63
v -18 1 -63
v -15 0 -63
v -15 1 -63
v 23 0 -63
v 23 1 -63
v 26 0 -63
v 26 1 -63
v 27 0 -63
v 27 1 -63
v 63 0 -63
v 63 1 -63
v 42 0 32
v 43 0 32
v 42 0 31
v 43 0 31
v 23 0 -10
v 26 0 -10
v -18 0 -11
v -15 0 -11
v -63 0 -17
v -18 0 -17
v -15 0 -17
v 23 0 -17
v 26 0 -17
v 63 0 -17
v -57 0 -23
v -18 0 -23
v -15 0 -23
v 23 0 -23
v 26 0 -23
v 63 0 -23
v 26 0 -62
v 27 0 -62
v -63 0 -63
v -57 0 -63
v -18 0 -63
v -15 0 -63
v 23 0 -63
v 26 0 -63
v 27 0 -63
v 63 0 -63
v 42 1 32
v 43 1 32
v 42 1 31
v 43 1 31
v 23 1 -10
v 26 1 -10
v -18 1 -11
v -15 1 -11
v -63 1 -17
v -18 1 -17
v -15 1 -17
v 23 1 -17
v 26 1 -17
v 63 1 -17
v -57 1 -23
v -18 1 -23
v -15 1 -23
v 23 1 -23
v 26 1 -23
v 63 1 -23
v 26 1 -62
v 27 1 -62
v -63 1 -63
v -57 1 -63
v -18 1 -63
v -15 1 -63
v 23 1 -63
v 26 1 -63
v 27 1 -63
v 63 1 -63

# faces
f 3/1/1 2/1/1 1/1/1
f 4/1/1 2/1/1 3/1/1
f 9/1/1 6/1/1 5/1/1
f 10/1/1 6/1/1 9/1/1
f 11/1/1 8/1/1 7/1/1
f 12/1/1 8/1/1 11/1/1
f 17/1/1 14/1/1 13/1/1
f 18/1/1 14/1/1 17/1/1
f 19/1/1 16/1/1 15/1/1
f 20/1/1 16/1/1 19/1/1
f 23/3/1 22/3/1 21/3/1
f 24/3/1 22/3/1 23/3/1
f 27/2/1 26/2/1 25/2/1
f 28/2/1 26/2/1 27/2/1
f 29/1/2 30/1/2 31/1/2
f 31/1/2 30/1/2 32/1/2
f 33/1/2 34/1/2 37/1/2
f 37/1/2 34/1/2 38/1/2
f 35/1/2 36/1/2 39/1/2
f 39/1/2 36/1/2 40/1/2
f 41/1/2 42/1/2 45/1/2
f 45/1/2 42/1/2 46/1/2
f 43/1/2 44/1/2 47/1/2
f 47/1/2 44/1/2 48/1/2
f 49/2/2 50/2/2 51/2/2
f 51/2/2 50/2/2 52/2/2
f 53/1/2 54/1/2 56/1/2
f 54/3/2 55/3/2 57/3/2
f 56/1/2 54/1/2 57/1/2
f 57/3/2 55/3/2 58/3/2
f 61/2/3 60/2/3 59/2/3
f 62/2/3 60/2/3 61/2/3
f 65/1/3 64/1/3 63/1/3
f 66/1/3 64/1/3 65/1/3
f 69/1/3 68/1/3 67/1/3
f 70/1/3 68/1/3 69/1/3
f 73/1/3 72/1/3 71/1/3
f 74/1/3 72/1/3 73/1/3
f 77/1/3 76/1/3 75/1/3
f 78/1/3 76/1/3 77/1/3
f 81/1/3 80/1/3 79/1/3
f 82/1/3 80/1/3 81/1/3
f 83/2/4 84/2/4 85/2/4
f 85/2/4 84/2/4 86/2/4
f 87/1/4 88/1/4 89/1/4
f 89/1/4 88/1/4 90/1/4
f 91/1/4 92/1/4 93/1/4
f 93/1/4 92/1/4 94/1/4
f 95/3/4 96/3/4 97/3/4
f 97/3/4 96/3/4 98/3/4
f 99/1/4 100/1/4 101/1/4
f 101/1/4 100/1/4 102/1/4
f 103/1/4 104/1/4 105/1/4
f 105/1/4 104/1/4 106/1/4
f 107/1/4 108/1/4 109/1/4
f 109/1/4 108/1/4 110/1/4
f 111/3/4 112/3/4 113/3/4
f 113/3/4 112/3/4 114/3/4
f 117/2/5 116/2/5 115/2/5
f 118/2/5 116/2/5 117/2/5
f 124/1/5 122/1/5 121/1/5
f 125/1/5 122/1/5 124/1/5
f 126/1/5 120/1/5 119/1/5
f 127/1/5 120/1/5 126/1/5
f 129/1/5 127/1/5 126/1/5
f 129/1/5 128/1/5 127/1/5
f 129/1/5 126/1/5 125/1/5
f 129/1/5 125/1/5 124/1/5
f 129/1/5 124/1/5 123/1/5
f 130/1/5 128/1/5 129/1/5
f 131/1/5 128/1/5 130/1/5
f 132/1/5 128/1/5 131/1/5
f 133/1/5 128/1/5 132/1/5
f 134/1/5 128/1/5 133/1/5
f 135/3/5 134/3/5 133/3/5
f 135/1/5 133/1/5 132/1/5
f 136/3/5 134/3/5 135/3/5
f 137/1/5 129/1/5 123/1/5
f 138/1/5 129/1/5 137/1/5
f 139/1/5 131/1/5 130/1/5
f 140/1/5 131/1/5 139/1/5
f 141/1/5 135/1/5 132/1/5
f 142/1/5 135/1/5 141/1/5
f 143/3/5 134/3/5 136/3/5
f 144/3/5 134/3/5 143/3/5
f 145/2/6 146/2/6 147/2/6
f 147/2/6 146/2/6 148/2/6
f 151/1/6 152/1/6 154/1/6
f 154/1/6 152/1/6 155/1/6
f 149/1/6 150/1/6 156/1/6
f 156/1/6 150/1/6 157/1/6
f 156/1/6 157/1/6 159/1/6
f 157/1/6 158/1/6 159/1/6
f 155/1/6 156/1/6 159/1/6
f 154/1/6 155/1/6 159/1/6
f 153/1/6 154/1/6 159/1/6
f 159/1/6 158/1/6 160/1/6
f 160/1/6 158/1/6 161/1/6
f 161/1/6 158/1/6 162/1/6
f 162/1/6 158/1/6 163/1/6
f 163/1/6 158/1/6 164/1/6
f 163/3/6 164/3/6 165/3/6
f 162/1/6 163/1/6 165/1/6
f 165/3/6 164/3/6 166/3/6
f 153/1/6 159/1/6 167/1/6
f 167/1/6 159/1/6 168/1/6
f 160/1/6 161/1/6 169/1/6
f 169/1/6 161/1/6 170/1/6
f 162/1/6 165/1/6 171/1/6
f 171/1/6 165/1/6 172/1/6
f 166/3/6 164/3/6 173/3/6
f 173/3/6 164/3/6 174/3/6
