# MagicaVoxel @ Ephtracy

# group
g Central Campus-Draft (1)-4

# material
mtllib Central Campus-Draft (1)-4.mtl
usemtl palette

# normals
vn -1 0 0
vn 1 0 0
vn 0 0 1
vn 0 0 -1
vn 0 -1 0
vn 0 1 0

# texcoords
vt 0.337891 0.5
vt 0.900391 0.5

# verts
v -19.5 0 31
v -19.5 0 -33
v -19.5 0 -35
v -19.5 1 31
v -19.5 1 -33
v -19.5 1 -35
v 18.5 0 33
v 18.5 0 31
v 18.5 1 33
v 18.5 1 31
v 19.5 0 33
v 19.5 0 27
v 19.5 0 -35
v 19.5 1 33
v 19.5 1 27
v 19.5 1 -35
v 18.5 0 33
v 18.5 1 33
v 19.5 0 33
v 19.5 1 33
v -19.5 0 31
v -19.5 1 31
v 17.5 0 31
v 17.5 1 31
v 18.5 0 31
v 18.5 1 31
v -19.5 0 -35
v -19.5 1 -35
v -16.5 0 -35
v -16.5 1 -35
v 19.5 0 -35
v 19.5 1 -35
v 18.5 0 33
v 19.5 0 33
v -19.5 0 31
v 17.5 0 31
v 18.5 0 31
v 16.5 0 29
v 17.5 0 29
v 15.5 0 28
v 16.5 0 28
v 18.5 0 27
v 19.5 0 27
v 14.5 0 26
v 15.5 0 26
v 17.5 0 25
v 18.5 0 25
v 13.5 0 24
v 14.5 0 24
v 16.5 0 23
v 17.5 0 23
v 12.5 0 22
v 13.5 0 22
v 15.5 0 22
v 16.5 0 22
v 11.5 0 21
v 12.5 0 21
v 14.5 0 20
v 15.5 0 20
v 10.5 0 19
v 11.5 0 19
v 13.5 0 18
v 14.5 0 18
v 9.5 0 17
v 10.5 0 17
v 12.5 0 16
v 13.5 0 16
v 8.5 0 15
v 9.5 0 15
v 11.5 0 15
v 12.5 0 15
v 7.5 0 14
v 8.5 0 14
v 10.5 0 13
v 11.5 0 13
v 6.5 0 12
v 7.5 0 12
v 9.5 0 11
v 10.5 0 11
v 5.5 0 10
v 6.5 0 10
v 4.5 0 9
v 5.5 0 9
v 8.5 0 9
v 9.5 0 9
v 7.5 0 8
v 8.5 0 8
v 3.5 0 7
v 4.5 0 7
v 6.5 0 6
v 7.5 0 6
v 2.5 0 5
v 3.5 0 5
v 5.5 0 4
v 6.5 0 4
v 1.5 0 3
v 2.5 0 3
v 4.5 0 3
v 5.5 0 3
v 0.5 0 2
v 1.5 0 2
v 3.5 0 1
v 4.5 0 1
v -0.5 0 -0
v 0.5 0 -0
v 2.5 0 -1
v 3.5 0 -1
v -1.5 0 -2
v -0.5 0 -2
v 1.5 0 -3
v 2.5 0 -3
v -2.5 0 -4
v -1.5 0 -4
v 0.5 0 -4
v 1.5 0 -4
v -3.5 0 -5
v -2.5 0 -5
v -0.5 0 -6
v 0.5 0 -6
v -4.5 0 -7
v -3.5 0 -7
v -1.5 0 -8
v -0.5 0 -8
v -5.5 0 -9
v -4.5 0 -9
v -6.5 0 -10
v -5.5 0 -10
v -2.5 0 -10
v -1.5 0 -10
v -3.5 0 -11
v -2.5 0 -11
v -7.5 0 -12
v -6.5 0 -12
v -4.5 0 -13
v -3.5 0 -13
v -8.5 0 -14
v -7.5 0 -14
v -5.5 0 -15
v -4.5 0 -15
v -9.5 0 -16
v -8.5 0 -16
v -6.5 0 -16
v -5.5 0 -16
v -10.5 0 -17
v -9.5 0 -17
v -7.5 0 -18
v -6.5 0 -18
v -11.5 0 -19
v -10.5 0 -19
v -8.5 0 -20
v -7.5 0 -20
v -12.5 0 -21
v -11.5 0 -21
v -9.5 0 -22
v -8.5 0 -22
v -13.5 0 -23
v -12.5 0 -23
v -10.5 0 -23
v -9.5 0 -23
v -14.5 0 -24
v -13.5 0 -24
v -11.5 0 -25
v -10.5 0 -25
v -15.5 0 -26
v -14.5 0 -26
v -12.5 0 -27
v -11.5 0 -27
v -16.5 0 -28
v -15.5 0 -28
v -13.5 0 -29
v -12.5 0 -29
v -17.5 0 -30
v -16.5 0 -30
v -14.5 0 -30
v -13.5 0 -30
v -18.5 0 -31
v -17.5 0 -31
v -15.5 0 -32
v -14.5 0 -32
v -19.5 0 -33
v -18.5 0 -33
v -16.5 0 -34
v -15.5 0 -34
v -19.5 0 -35
v -16.5 0 -35
v 19.5 0 -35
v 18.5 1 33
v 19.5 1 33
v -19.5 1 31
v 17.5 1 31
v 18.5 1 31
v 16.5 1 29
v 17.5 1 29
v 15.5 1 28
v 16.5 1 28
v 18.5 1 27
v 19.5 1 27
v 14.5 1 26
v 15.5 1 26
v 17.5 1 25
v 18.5 1 25
v 13.5 1 24
v 14.5 1 24
v 16.5 1 23
v 17.5 1 23
v 12.5 1 22
v 13.5 1 22
v 15.5 1 22
v 16.5 1 22
v 11.5 1 21
v 12.5 1 21
v 14.5 1 20
v 15.5 1 20
v 10.5 1 19
v 11.5 1 19
v 13.5 1 18
v 14.5 1 18
v 9.5 1 17
v 10.5 1 17
v 12.5 1 16
v 13.5 1 16
v 8.5 1 15
v 9.5 1 15
v 11.5 1 15
v 12.5 1 15
v 7.5 1 14
v 8.5 1 14
v 10.5 1 13
v 11.5 1 13
v 6.5 1 12
v 7.5 1 12
v 9.5 1 11
v 10.5 1 11
v 5.5 1 10
v 6.5 1 10
v 4.5 1 9
v 5.5 1 9
v 8.5 1 9
v 9.5 1 9
v 7.5 1 8
v 8.5 1 8
v 3.5 1 7
v 4.5 1 7
v 6.5 1 6
v 7.5 1 6
v 2.5 1 5
v 3.5 1 5
v 5.5 1 4
v 6.5 1 4
v 1.5 1 3
v 2.5 1 3
v 4.5 1 3
v 5.5 1 3
v 0.5 1 2
v 1.5 1 2
v 3.5 1 1
v 4.5 1 1
v -0.5 1 -0
v 0.5 1 -0
v 2.5 1 -1
v 3.5 1 -1
v -1.5 1 -2
v -0.5 1 -2
v 1.5 1 -3
v 2.5 1 -3
v -2.5 1 -4
v -1.5 1 -4
v 0.5 1 -4
v 1.5 1 -4
v -3.5 1 -5
v -2.5 1 -5
v -0.5 1 -6
v 0.5 1 -6
v -4.5 1 -7
v -3.5 1 -7
v -1.5 1 -8
v -0.5 1 -8
v -5.5 1 -9
v -4.5 1 -9
v -6.5 1 -10
v -5.5 1 -10
v -2.5 1 -10
v -1.5 1 -10
v -3.5 1 -11
v -2.5 1 -11
v -7.5 1 -12
v -6.5 1 -12
v -4.5 1 -13
v -3.5 1 -13
v -8.5 1 -14
v -7.5 1 -14
v -5.5 1 -15
v -4.5 1 -15
v -9.5 1 -16
v -8.5 1 -16
v -6.5 1 -16
v -5.5 1 -16
v -10.5 1 -17
v -9.5 1 -17
v -7.5 1 -18
v -6.5 1 -18
v -11.5 1 -19
v -10.5 1 -19
v -8.5 1 -20
v -7.5 1 -20
v -12.5 1 -21
v -11.5 1 -21
v -9.5 1 -22
v -8.5 1 -22
v -13.5 1 -23
v -12.5 1 -23
v -10.5 1 -23
v -9.5 1 -23
v -14.5 1 -24
v -13.5 1 -24
v -11.5 1 -25
v -10.5 1 -25
v -15.5 1 -26
v -14.5 1 -26
v -12.5 1 -27
v -11.5 1 -27
v -16.5 1 -28
v -15.5 1 -28
v -13.5 1 -29
v -12.5 1 -29
v -17.5 1 -30
v -16.5 1 -30
v -14.5 1 -30
v -13.5 1 -30
v -18.5 1 -31
v -17.5 1 -31
v -15.5 1 -32
v -14.5 1 -32
v -19.5 1 -33
v -18.5 1 -33
v -16.5 1 -34
v -15.5 1 -34
v -19.5 1 -35
v -16.5 1 -35
v 19.5 1 -35

# faces
f 4/2/1 2/2/1 1/2/1
f 5/1/1 3/1/1 2/1/1
f 5/2/1 2/2/1 4/2/1
f 6/1/1 3/1/1 5/1/1
f 9/1/1 8/1/1 7/1/1
f 10/1/1 8/1/1 9/1/1
f 11/1/2 12/1/2 14/1/2
f 12/2/2 13/2/2 15/2/2
f 14/1/2 12/1/2 15/1/2
f 15/2/2 13/2/2 16/2/2
f 19/1/3 18/1/3 17/1/3
f 20/1/3 18/1/3 19/1/3
f 23/2/3 22/2/3 21/2/3
f 24/2/3 22/2/3 23/2/3
f 25/1/3 24/1/3 23/1/3
f 26/1/3 24/1/3 25/1/3
f 27/1/4 28/1/4 29/1/4
f 29/1/4 28/1/4 30/1/4
f 29/2/4 30/2/4 31/2/4
f 31/2/4 30/2/4 32/2/4
f 37/1/5 34/1/5 33/1/5
f 38/2/5 36/2/5 35/2/5
f 39/1/5 37/1/5 36/1/5
f 39/2/5 36/2/5 38/2/5
f 40/2/5 38/2/5 35/2/5
f 41/1/5 39/1/5 38/1/5
f 41/2/5 38/2/5 40/2/5
f 42/1/5 37/1/5 39/1/5
f 42/1/5 39/1/5 41/1/5
f 42/1/5 41/1/5 40/1/5
f 42/1/5 34/1/5 37/1/5
f 43/1/5 34/1/5 42/1/5
f 44/2/5 40/2/5 35/2/5
f 45/1/5 42/1/5 40/1/5
f 45/2/5 40/2/5 44/2/5
f 46/1/5 45/1/5 44/1/5
f 46/1/5 42/1/5 45/1/5
f 47/2/5 43/2/5 42/2/5
f 47/1/5 42/1/5 46/1/5
f 48/2/5 44/2/5 35/2/5
f 49/1/5 46/1/5 44/1/5
f 49/2/5 44/2/5 48/2/5
f 50/1/5 49/1/5 48/1/5
f 50/1/5 46/1/5 49/1/5
f 51/2/5 47/2/5 46/2/5
f 51/1/5 46/1/5 50/1/5
f 52/2/5 48/2/5 35/2/5
f 53/1/5 50/1/5 48/1/5
f 53/2/5 48/2/5 52/2/5
f 54/1/5 50/1/5 53/1/5
f 55/2/5 51/2/5 50/2/5
f 55/1/5 50/1/5 54/1/5
f 56/2/5 52/2/5 35/2/5
f 57/1/5 54/1/5 53/1/5
f 57/2/5 52/2/5 56/2/5
f 57/1/5 53/1/5 52/1/5
f 58/1/5 57/1/5 56/1/5
f 58/1/5 54/1/5 57/1/5
f 59/2/5 55/2/5 54/2/5
f 59/1/5 54/1/5 58/1/5
f 60/2/5 56/2/5 35/2/5
f 61/1/5 58/1/5 56/1/5
f 61/2/5 56/2/5 60/2/5
f 62/1/5 61/1/5 60/1/5
f 62/1/5 58/1/5 61/1/5
f 63/2/5 59/2/5 58/2/5
f 63/1/5 58/1/5 62/1/5
f 64/2/5 60/2/5 35/2/5
f 65/1/5 62/1/5 60/1/5
f 65/2/5 60/2/5 64/2/5
f 66/1/5 65/1/5 64/1/5
f 66/1/5 62/1/5 65/1/5
f 67/2/5 63/2/5 62/2/5
f 67/1/5 62/1/5 66/1/5
f 68/2/5 64/2/5 35/2/5
f 69/1/5 66/1/5 64/1/5
f 69/2/5 64/2/5 68/2/5
f 70/1/5 66/1/5 69/1/5
f 71/2/5 67/2/5 66/2/5
f 71/1/5 66/1/5 70/1/5
f 72/2/5 68/2/5 35/2/5
f 73/1/5 70/1/5 69/1/5
f 73/2/5 68/2/5 72/2/5
f 73/1/5 69/1/5 68/1/5
f 74/1/5 73/1/5 72/1/5
f 74/1/5 70/1/5 73/1/5
f 75/2/5 71/2/5 70/2/5
f 75/1/5 70/1/5 74/1/5
f 76/2/5 72/2/5 35/2/5
f 77/1/5 74/1/5 72/1/5
f 77/2/5 72/2/5 76/2/5
f 78/1/5 77/1/5 76/1/5
f 78/1/5 74/1/5 77/1/5
f 79/2/5 75/2/5 74/2/5
f 79/1/5 74/1/5 78/1/5
f 80/2/5 76/2/5 35/2/5
f 81/1/5 78/1/5 76/1/5
f 81/2/5 76/2/5 80/2/5
f 82/2/5 80/2/5 35/2/5
f 83/1/5 81/1/5 80/1/5
f 83/2/5 80/2/5 82/2/5
f 84/1/5 78/1/5 81/1/5
f 84/1/5 81/1/5 83/1/5
f 85/2/5 79/2/5 78/2/5
f 85/1/5 78/1/5 84/1/5
f 86/1/5 83/1/5 82/1/5
f 86/1/5 84/1/5 83/1/5
f 87/2/5 85/2/5 84/2/5
f 87/1/5 84/1/5 86/1/5
f 88/2/5 82/2/5 35/2/5
f 89/1/5 86/1/5 82/1/5
f 89/2/5 82/2/5 88/2/5
f 90/1/5 89/1/5 88/1/5
f 90/1/5 86/1/5 89/1/5
f 91/2/5 87/2/5 86/2/5
f 91/1/5 86/1/5 90/1/5
f 92/2/5 88/2/5 35/2/5
f 93/1/5 90/1/5 88/1/5
f 93/2/5 88/2/5 92/2/5
f 94/1/5 93/1/5 92/1/5
f 94/1/5 90/1/5 93/1/5
f 95/2/5 91/2/5 90/2/5
f 95/1/5 90/1/5 94/1/5
f 96/2/5 92/2/5 35/2/5
f 97/1/5 94/1/5 92/1/5
f 97/2/5 92/2/5 96/2/5
f 98/1/5 94/1/5 97/1/5
f 99/2/5 95/2/5 94/2/5
f 99/1/5 94/1/5 98/1/5
f 100/2/5 96/2/5 35/2/5
f 101/1/5 98/1/5 97/1/5
f 101/2/5 96/2/5 100/2/5
f 101/1/5 97/1/5 96/1/5
f 102/1/5 101/1/5 100/1/5
f 102/1/5 98/1/5 101/1/5
f 103/2/5 99/2/5 98/2/5
f 103/1/5 98/1/5 102/1/5
f 104/2/5 100/2/5 35/2/5
f 105/1/5 102/1/5 100/1/5
f 105/2/5 100/2/5 104/2/5
f 106/1/5 105/1/5 104/1/5
f 106/1/5 102/1/5 105/1/5
f 107/2/5 103/2/5 102/2/5
f 107/1/5 102/1/5 106/1/5
f 108/2/5 104/2/5 35/2/5
f 109/1/5 106/1/5 104/1/5
f 109/2/5 104/2/5 108/2/5
f 110/1/5 109/1/5 108/1/5
f 110/1/5 106/1/5 109/1/5
f 111/2/5 107/2/5 106/2/5
f 111/1/5 106/1/5 110/1/5
f 112/2/5 108/2/5 35/2/5
f 113/1/5 110/1/5 108/1/5
f 113/2/5 108/2/5 112/2/5
f 114/1/5 110/1/5 113/1/5
f 115/2/5 111/2/5 110/2/5
f 115/1/5 110/1/5 114/1/5
f 116/2/5 112/2/5 35/2/5
f 117/1/5 114/1/5 113/1/5
f 117/2/5 112/2/5 116/2/5
f 117/1/5 113/1/5 112/1/5
f 118/1/5 117/1/5 116/1/5
f 118/1/5 114/1/5 117/1/5
f 119/2/5 115/2/5 114/2/5
f 119/1/5 114/1/5 118/1/5
f 120/2/5 116/2/5 35/2/5
f 121/1/5 118/1/5 116/1/5
f 121/2/5 116/2/5 120/2/5
f 122/1/5 121/1/5 120/1/5
f 122/1/5 118/1/5 121/1/5
f 123/2/5 119/2/5 118/2/5
f 123/1/5 118/1/5 122/1/5
f 124/2/5 120/2/5 35/2/5
f 125/1/5 122/1/5 120/1/5
f 125/2/5 120/2/5 124/2/5
f 126/2/5 124/2/5 35/2/5
f 127/1/5 125/1/5 124/1/5
f 127/2/5 124/2/5 126/2/5
f 128/1/5 122/1/5 125/1/5
f 128/1/5 125/1/5 127/1/5
f 129/2/5 123/2/5 122/2/5
f 129/1/5 122/1/5 128/1/5
f 130/1/5 127/1/5 126/1/5
f 130/1/5 128/1/5 127/1/5
f 131/2/5 129/2/5 128/2/5
f 131/1/5 128/1/5 130/1/5
f 132/2/5 126/2/5 35/2/5
f 133/1/5 130/1/5 126/1/5
f 133/2/5 126/2/5 132/2/5
f 134/1/5 133/1/5 132/1/5
f 134/1/5 130/1/5 133/1/5
f 135/2/5 131/2/5 130/2/5
f 135/1/5 130/1/5 134/1/5
f 136/2/5 132/2/5 35/2/5
f 137/1/5 134/1/5 132/1/5
f 137/2/5 132/2/5 136/2/5
f 138/1/5 137/1/5 136/1/5
f 138/1/5 134/1/5 137/1/5
f 139/2/5 135/2/5 134/2/5
f 139/1/5 134/1/5 138/1/5
f 140/2/5 136/2/5 35/2/5
f 141/1/5 138/1/5 136/1/5
f 141/2/5 136/2/5 140/2/5
f 142/1/5 138/1/5 141/1/5
f 143/2/5 139/2/5 138/2/5
f 143/1/5 138/1/5 142/1/5
f 144/2/5 140/2/5 35/2/5
f 145/1/5 142/1/5 141/1/5
f 145/2/5 140/2/5 144/2/5
f 145/1/5 141/1/5 140/1/5
f 146/1/5 145/1/5 144/1/5
f 146/1/5 142/1/5 145/1/5
f 147/2/5 143/2/5 142/2/5
f 147/1/5 142/1/5 146/1/5
f 148/2/5 144/2/5 35/2/5
f 149/1/5 146/1/5 144/1/5
f 149/2/5 144/2/5 148/2/5
f 150/1/5 149/1/5 148/1/5
f 150/1/5 146/1/5 149/1/5
f 151/2/5 147/2/5 146/2/5
f 151/1/5 146/1/5 150/1/5
f 152/2/5 148/2/5 35/2/5
f 153/1/5 150/1/5 148/1/5
f 153/2/5 148/2/5 152/2/5
f 154/1/5 153/1/5 152/1/5
f 154/1/5 150/1/5 153/1/5
f 155/2/5 151/2/5 150/2/5
f 155/1/5 150/1/5 154/1/5
f 156/2/5 152/2/5 35/2/5
f 157/1/5 154/1/5 152/1/5
f 157/2/5 152/2/5 156/2/5
f 158/1/5 154/1/5 157/1/5
f 159/2/5 155/2/5 154/2/5
f 159/1/5 154/1/5 158/1/5
f 160/2/5 156/2/5 35/2/5
f 161/1/5 158/1/5 157/1/5
f 161/2/5 156/2/5 160/2/5
f 161/1/5 157/1/5 156/1/5
f 162/1/5 161/1/5 160/1/5
f 162/1/5 158/1/5 161/1/5
f 163/2/5 159/2/5 158/2/5
f 163/1/5 158/1/5 162/1/5
f 164/2/5 160/2/5 35/2/5
f 165/1/5 162/1/5 160/1/5
f 165/2/5 160/2/5 164/2/5
f 166/1/5 165/1/5 164/1/5
f 166/1/5 162/1/5 165/1/5
f 167/2/5 163/2/5 162/2/5
f 167/1/5 162/1/5 166/1/5
f 168/2/5 164/2/5 35/2/5
f 169/1/5 166/1/5 164/1/5
f 169/2/5 164/2/5 168/2/5
f 170/1/5 169/1/5 168/1/5
f 170/1/5 166/1/5 169/1/5
f 171/2/5 167/2/5 166/2/5
f 171/1/5 166/1/5 170/1/5
f 172/2/5 168/2/5 35/2/5
f 173/1/5 170/1/5 168/1/5
f 173/2/5 168/2/5 172/2/5
f 174/1/5 170/1/5 173/1/5
f 175/2/5 171/2/5 170/2/5
f 175/1/5 170/1/5 174/1/5
f 176/2/5 172/2/5 35/2/5
f 177/1/5 174/1/5 173/1/5
f 177/2/5 172/2/5 176/2/5
f 177/1/5 173/1/5 172/1/5
f 178/1/5 177/1/5 176/1/5
f 178/1/5 174/1/5 177/1/5
f 179/2/5 175/2/5 174/2/5
f 179/1/5 174/1/5 178/1/5
f 180/2/5 176/2/5 35/2/5
f 181/1/5 178/1/5 176/1/5
f 181/2/5 176/2/5 180/2/5
f 182/1/5 181/1/5 180/1/5
f 182/1/5 178/1/5 181/1/5
f 183/2/5 179/2/5 178/2/5
f 183/1/5 178/1/5 182/1/5
f 184/1/5 182/1/5 180/1/5
f 185/2/5 183/2/5 182/2/5
f 185/1/5 182/1/5 184/1/5
f 186/2/5 43/2/5 47/2/5
f 186/2/5 183/2/5 185/2/5
f 186/2/5 47/2/5 51/2/5
f 186/2/5 51/2/5 55/2/5
f 186/2/5 179/2/5 183/2/5
f 186/2/5 55/2/5 59/2/5
f 186/2/5 175/2/5 179/2/5
f 186/2/5 171/2/5 175/2/5
f 186/2/5 167/2/5 171/2/5
f 186/2/5 163/2/5 167/2/5
f 186/2/5 159/2/5 163/2/5
f 186/2/5 155/2/5 159/2/5
f 186/2/5 151/2/5 155/2/5
f 186/2/5 147/2/5 151/2/5
f 186/2/5 143/2/5 147/2/5
f 186/2/5 139/2/5 143/2/5
f 186/2/5 135/2/5 139/2/5
f 186/2/5 129/2/5 131/2/5
f 186/2/5 131/2/5 135/2/5
f 186/2/5 123/2/5 129/2/5
f 186/2/5 119/2/5 123/2/5
f 186/2/5 115/2/5 119/2/5
f 186/2/5 111/2/5 115/2/5
f 186/2/5 107/2/5 111/2/5
f 186/2/5 103/2/5 107/2/5
f 186/2/5 99/2/5 103/2/5
f 186/2/5 95/2/5 99/2/5
f 186/2/5 91/2/5 95/2/5
f 186/2/5 85/2/5 87/2/5
f 186/2/5 87/2/5 91/2/5
f 186/2/5 79/2/5 85/2/5
f 186/2/5 75/2/5 79/2/5
f 186/2/5 71/2/5 75/2/5
f 186/2/5 67/2/5 71/2/5
f 186/2/5 63/2/5 67/2/5
f 186/2/5 59/2/5 63/2/5
f 187/1/6 188/1/6 191/1/6
f 189/2/6 190/2/6 192/2/6
f 190/1/6 191/1/6 193/1/6
f 192/2/6 190/2/6 193/2/6
f 189/2/6 192/2/6 194/2/6
f 192/1/6 193/1/6 195/1/6
f 194/2/6 192/2/6 195/2/6
f 193/1/6 191/1/6 196/1/6
f 195/1/6 193/1/6 196/1/6
f 194/1/6 195/1/6 196/1/6
f 191/1/6 188/1/6 196/1/6
f 196/1/6 188/1/6 197/1/6
f 189/2/6 194/2/6 198/2/6
f 194/1/6 196/1/6 199/1/6
f 198/2/6 194/2/6 199/2/6
f 198/1/6 199/1/6 200/1/6
f 199/1/6 196/1/6 200/1/6
f 196/2/6 197/2/6 201/2/6
f 200/1/6 196/1/6 201/1/6
f 189/2/6 198/2/6 202/2/6
f 198/1/6 200/1/6 203/1/6
f 202/2/6 198/2/6 203/2/6
f 202/1/6 203/1/6 204/1/6
f 203/1/6 200/1/6 204/1/6
f 200/2/6 201/2/6 205/2/6
f 204/1/6 200/1/6 205/1/6
f 189/2/6 202/2/6 206/2/6
f 202/1/6 204/1/6 207/1/6
f 206/2/6 202/2/6 207/2/6
f 207/1/6 204/1/6 208/1/6
f 204/2/6 205/2/6 209/2/6
f 208/1/6 204/1/6 209/1/6
f 189/2/6 206/2/6 210/2/6
f 207/1/6 208/1/6 211/1/6
f 210/2/6 206/2/6 211/2/6
f 206/1/6 207/1/6 211/1/6
f 210/1/6 211/1/6 212/1/6
f 211/1/6 208/1/6 212/1/6
f 208/2/6 209/2/6 213/2/6
f 212/1/6 208/1/6 213/1/6
f 189/2/6 210/2/6 214/2/6
f 210/1/6 212/1/6 215/1/6
f 214/2/6 210/2/6 215/2/6
f 214/1/6 215/1/6 216/1/6
f 215/1/6 212/1/6 216/1/6
f 212/2/6 213/2/6 217/2/6
f 216/1/6 212/1/6 217/1/6
f 189/2/6 214/2/6 218/2/6
f 214/1/6 216/1/6 219/1/6
f 218/2/6 214/2/6 219/2/6
f 218/1/6 219/1/6 220/1/6
f 219/1/6 216/1/6 220/1/6
f 216/2/6 217/2/6 221/2/6
f 220/1/6 216/1/6 221/1/6
f 189/2/6 218/2/6 222/2/6
f 218/1/6 220/1/6 223/1/6
f 222/2/6 218/2/6 223/2/6
f 223/1/6 220/1/6 224/1/6
f 220/2/6 221/2/6 225/2/6
f 224/1/6 220/1/6 225/1/6
f 189/2/6 222/2/6 226/2/6
f 223/1/6 224/1/6 227/1/6
f 226/2/6 222/2/6 227/2/6
f 222/1/6 223/1/6 227/1/6
f 226/1/6 227/1/6 228/1/6
f 227/1/6 224/1/6 228/1/6
f 224/2/6 225/2/6 229/2/6
f 228/1/6 224/1/6 229/1/6
f 189/2/6 226/2/6 230/2/6
f 226/1/6 228/1/6 231/1/6
f 230/2/6 226/2/6 231/2/6
f 230/1/6 231/1/6 232/1/6
f 231/1/6 228/1/6 232/1/6
f 228/2/6 229/2/6 233/2/6
f 232/1/6 228/1/6 233/1/6
f 189/2/6 230/2/6 234/2/6
f 230/1/6 232/1/6 235/1/6
f 234/2/6 230/2/6 235/2/6
f 189/2/6 234/2/6 236/2/6
f 234/1/6 235/1/6 237/1/6
f 236/2/6 234/2/6 237/2/6
f 235/1/6 232/1/6 238/1/6
f 237/1/6 235/1/6 238/1/6
f 232/2/6 233/2/6 239/2/6
f 238/1/6 232/1/6 239/1/6
f 236/1/6 237/1/6 240/1/6
f 237/1/6 238/1/6 240/1/6
f 238/2/6 239/2/6 241/2/6
f 240/1/6 238/1/6 241/1/6
f 189/2/6 236/2/6 242/2/6
f 236/1/6 240/1/6 243/1/6
f 242/2/6 236/2/6 243/2/6
f 242/1/6 243/1/6 244/1/6
f 243/1/6 240/1/6 244/1/6
f 240/2/6 241/2/6 245/2/6
f 244/1/6 240/1/6 245/1/6
f 189/2/6 242/2/6 246/2/6
f 242/1/6 244/1/6 247/1/6
f 246/2/6 242/2/6 247/2/6
f 246/1/6 247/1/6 248/1/6
f 247/1/6 244/1/6 248/1/6
f 244/2/6 245/2/6 249/2/6
f 248/1/6 244/1/6 249/1/6
f 189/2/6 246/2/6 250/2/6
f 246/1/6 248/1/6 251/1/6
f 250/2/6 246/2/6 251/2/6
f 251/1/6 248/1/6 252/1/6
f 248/2/6 249/2/6 253/2/6
f 252/1/6 248/1/6 253/1/6
f 189/2/6 250/2/6 254/2/6
f 251/1/6 252/1/6 255/1/6
f 254/2/6 250/2/6 255/2/6
f 250/1/6 251/1/6 255/1/6
f 254/1/6 255/1/6 256/1/6
f 255/1/6 252/1/6 256/1/6
f 252/2/6 253/2/6 257/2/6
f 256/1/6 252/1/6 257/1/6
f 189/2/6 254/2/6 258/2/6
f 254/1/6 256/1/6 259/1/6
f 258/2/6 254/2/6 259/2/6
f 258/1/6 259/1/6 260/1/6
f 259/1/6 256/1/6 260/1/6
f 256/2/6 257/2/6 261/2/6
f 260/1/6 256/1/6 261/1/6
f 189/2/6 258/2/6 262/2/6
f 258/1/6 260/1/6 263/1/6
f 262/2/6 258/2/6 263/2/6
f 262/1/6 263/1/6 264/1/6
f 263/1/6 260/1/6 264/1/6
f 260/2/6 261/2/6 265/2/6
f 264/1/6 260/1/6 265/1/6
f 189/2/6 262/2/6 266/2/6
f 262/1/6 264/1/6 267/1/6
f 266/2/6 262/2/6 267/2/6
f 267/1/6 264/1/6 268/1/6
f 264/2/6 265/2/6 269/2/6
f 268/1/6 264/1/6 269/1/6
f 189/2/6 266/2/6 270/2/6
f 267/1/6 268/1/6 271/1/6
f 270/2/6 266/2/6 271/2/6
f 266/1/6 267/1/6 271/1/6
f 270/1/6 271/1/6 272/1/6
f 271/1/6 268/1/6 272/1/6
f 268/2/6 269/2/6 273/2/6
f 272/1/6 268/1/6 273/1/6
f 189/2/6 270/2/6 274/2/6
f 270/1/6 272/1/6 275/1/6
f 274/2/6 270/2/6 275/2/6
f 274/1/6 275/1/6 276/1/6
f 275/1/6 272/1/6 276/1/6
f 272/2/6 273/2/6 277/2/6
f 276/1/6 272/1/6 277/1/6
f 189/2/6 274/2/6 278/2/6
f 274/1/6 276/1/6 279/1/6
f 278/2/6 274/2/6 279/2/6
f 189/2/6 278/2/6 280/2/6
f 278/1/6 279/1/6 281/1/6
f 280/2/6 278/2/6 281/2/6
f 279/1/6 276/1/6 282/1/6
f 281/1/6 279/1/6 282/1/6
f 276/2/6 277/2/6 283/2/6
f 282/1/6 276/1/6 283/1/6
f 280/1/6 281/1/6 284/1/6
f 281/1/6 282/1/6 284/1/6
f 282/2/6 283/2/6 285/2/6
f 284/1/6 282/1/6 285/1/6
f 189/2/6 280/2/6 286/2/6
f 280/1/6 284/1/6 287/1/6
f 286/2/6 280/2/6 287/2/6
f 286/1/6 287/1/6 288/1/6
f 287/1/6 284/1/6 288/1/6
f 284/2/6 285/2/6 289/2/6
f 288/1/6 284/1/6 289/1/6
f 189/2/6 286/2/6 290/2/6
f 286/1/6 288/1/6 291/1/6
f 290/2/6 286/2/6 291/2/6
f 290/1/6 291/1/6 292/1/6
f 291/1/6 288/1/6 292/1/6
f 288/2/6 289/2/6 293/2/6
f 292/1/6 288/1/6 293/1/6
f 189/2/6 290/2/6 294/2/6
f 290/1/6 292/1/6 295/1/6
f 294/2/6 290/2/6 295/2/6
f 295/1/6 292/1/6 296/1/6
f 292/2/6 293/2/6 297/2/6
f 296/1/6 292/1/6 297/1/6
f 189/2/6 294/2/6 298/2/6
f 295/1/6 296/1/6 299/1/6
f 298/2/6 294/2/6 299/2/6
f 294/1/6 295/1/6 299/1/6
f 298/1/6 299/1/6 300/1/6
f 299/1/6 296/1/6 300/1/6
f 296/2/6 297/2/6 301/2/6
f 300/1/6 296/1/6 301/1/6
f 189/2/6 298/2/6 302/2/6
f 298/1/6 300/1/6 303/1/6
f 302/2/6 298/2/6 303/2/6
f 302/1/6 303/1/6 304/1/6
f 303/1/6 300/1/6 304/1/6
f 300/2/6 301/2/6 305/2/6
f 304/1/6 300/1/6 305/1/6
f 189/2/6 302/2/6 306/2/6
f 302/1/6 304/1/6 307/1/6
f 306/2/6 302/2/6 307/2/6
f 306/1/6 307/1/6 308/1/6
f 307/1/6 304/1/6 308/1/6
f 304/2/6 305/2/6 309/2/6
f 308/1/6 304/1/6 309/1/6
f 189/2/6 306/2/6 310/2/6
f 306/1/6 308/1/6 311/1/6
f 310/2/6 306/2/6 311/2/6
f 311/1/6 308/1/6 312/1/6
f 308/2/6 309/2/6 313/2/6
f 312/1/6 308/1/6 313/1/6
f 189/2/6 310/2/6 314/2/6
f 311/1/6 312/1/6 315/1/6
f 314/2/6 310/2/6 315/2/6
f 310/1/6 311/1/6 315/1/6
f 314/1/6 315/1/6 316/1/6
f 315/1/6 312/1/6 316/1/6
f 312/2/6 313/2/6 317/2/6
f 316/1/6 312/1/6 317/1/6
f 189/2/6 314/2/6 318/2/6
f 314/1/6 316/1/6 319/1/6
f 318/2/6 314/2/6 319/2/6
f 318/1/6 319/1/6 320/1/6
f 319/1/6 316/1/6 320/1/6
f 316/2/6 317/2/6 321/2/6
f 320/1/6 316/1/6 321/1/6
f 189/2/6 318/2/6 322/2/6
f 318/1/6 320/1/6 323/1/6
f 322/2/6 318/2/6 323/2/6
f 322/1/6 323/1/6 324/1/6
f 323/1/6 320/1/6 324/1/6
f 320/2/6 321/2/6 325/2/6
f 324/1/6 320/1/6 325/1/6
f 189/2/6 322/2/6 326/2/6
f 322/1/6 324/1/6 327/1/6
f 326/2/6 322/2/6 327/2/6
f 327/1/6 324/1/6 328/1/6
f 324/2/6 325/2/6 329/2/6
f 328/1/6 324/1/6 329/1/6
f 189/2/6 326/2/6 330/2/6
f 327/1/6 328/1/6 331/1/6
f 330/2/6 326/2/6 331/2/6
f 326/1/6 327/1/6 331/1/6
f 330/1/6 331/1/6 332/1/6
f 331/1/6 328/1/6 332/1/6
f 328/2/6 329/2/6 333/2/6
f 332/1/6 328/1/6 333/1/6
f 189/2/6 330/2/6 334/2/6
f 330/1/6 332/1/6 335/1/6
f 334/2/6 330/2/6 335/2/6
f 334/1/6 335/1/6 336/1/6
f 335/1/6 332/1/6 336/1/6
f 332/2/6 333/2/6 337/2/6
f 336/1/6 332/1/6 337/1/6
f 334/1/6 336/1/6 338/1/6
f 336/2/6 337/2/6 339/2/6
f 338/1/6 336/1/6 339/1/6
f 201/2/6 197/2/6 340/2/6
f 339/2/6 337/2/6 340/2/6
f 205/2/6 201/2/6 340/2/6
f 209/2/6 205/2/6 340/2/6
f 337/2/6 333/2/6 340/2/6
f 213/2/6 209/2/6 340/2/6
f 333/2/6 329/2/6 340/2/6
f 329/2/6 325/2/6 340/2/6
f 325/2/6 321/2/6 340/2/6
f 321/2/6 317/2/6 340/2/6
f 317/2/6 313/2/6 340/2/6
f 313/2/6 309/2/6 340/2/6
f 309/2/6 305/2/6 340/2/6
f 305/2/6 301/2/6 340/2/6
f 301/2/6 297/2/6 340/2/6
f 297/2/6 293/2/6 340/2/6
f 293/2/6 289/2/6 340/2/6
f 285/2/6 283/2/6 340/2/6
f 289/2/6 285/2/6 340/2/6
f 283/2/6 277/2/6 340/2/6
f 277/2/6 273/2/6 340/2/6
f 273/2/6 269/2/6 340/2/6
f 269/2/6 265/2/6 340/2/6
f 265/2/6 261/2/6 340/2/6
f 261/2/6 257/2/6 340/2/6
f 257/2/6 253/2/6 340/2/6
f 253/2/6 249/2/6 340/2/6
f 249/2/6 245/2/6 340/2/6
f 241/2/6 239/2/6 340/2/6
f 245/2/6 241/2/6 340/2/6
f 239/2/6 233/2/6 340/2/6
f 233/2/6 229/2/6 340/2/6
f 229/2/6 225/2/6 340/2/6
f 225/2/6 221/2/6 340/2/6
f 221/2/6 217/2/6 340/2/6
f 217/2/6 213/2/6 340/2/6
