# MagicaVoxel @ Ephtracy

# group
g coffeecup

# material
mtllib coffeecup.mtl
usemtl palette

# normals
vn -1 0 0
vn 1 0 0
vn 0 0 1
vn 0 0 -1
vn 0 -1 0
vn 0 1 0

# texcoords
vt 0.970703 0.5
vt 0.974609 0.5

# verts
v -4.5 0 2
v -4.5 0 -5
v -4.5 12 2
v -4.5 12 -5
v -3.5 0 3
v -3.5 0 2
v -3.5 0 -5
v -3.5 0 -6
v -3.5 12 3
v -3.5 12 2
v -3.5 12 -5
v -3.5 12 -6
v -0.5 1 6
v -0.5 1 3
v -0.5 2 5
v -0.5 2 3
v -0.5 10 5
v -0.5 10 3
v -0.5 11 6
v -0.5 11 3
v 3.5 1 2
v 3.5 1 -5
v 3.5 12 2
v 3.5 12 -5
v -3.5 1 2
v -3.5 1 -5
v -3.5 12 2
v -3.5 12 -5
v 0.5 1 6
v 0.5 1 3
v 0.5 2 5
v 0.5 2 3
v 0.5 10 5
v 0.5 10 3
v 0.5 11 6
v 0.5 11 3
v 3.5 0 3
v 3.5 0 2
v 3.5 0 -5
v 3.5 0 -6
v 3.5 12 3
v 3.5 12 2
v 3.5 12 -5
v 3.5 12 -6
v 4.5 0 2
v 4.5 0 -5
v 4.5 12 2
v 4.5 12 -5
v -0.5 1 6
v -0.5 11 6
v 0.5 1 6
v 0.5 11 6
v -3.5 0 3
v -3.5 12 3
v -0.5 1 3
v -0.5 2 3
v -0.5 10 3
v -0.5 11 3
v 0.5 1 3
v 0.5 2 3
v 0.5 10 3
v 0.5 11 3
v 3.5 0 3
v 3.5 12 3
v -4.5 0 2
v -4.5 12 2
v -3.5 0 2
v -3.5 12 2
v 3.5 0 2
v 3.5 12 2
v 4.5 0 2
v 4.5 12 2
v -3.5 1 -5
v -3.5 12 -5
v 3.5 1 -5
v 3.5 12 -5
v -0.5 2 5
v -0.5 10 5
v 0.5 2 5
v 0.5 10 5
v -3.5 1 2
v -3.5 12 2
v 3.5 1 2
v 3.5 12 2
v -4.5 0 -5
v -4.5 12 -5
v -3.5 0 -5
v -3.5 12 -5
v 3.5 0 -5
v 3.5 12 -5
v 4.5 0 -5
v 4.5 12 -5
v -3.5 0 -6
v -3.5 12 -6
v 3.5 0 -6
v 3.5 12 -6
v -3.5 0 3
v 3.5 0 3
v -4.5 0 2
v -3.5 0 2
v 3.5 0 2
v 4.5 0 2
v -4.5 0 -5
v -3.5 0 -5
v 3.5 0 -5
v 4.5 0 -5
v -3.5 0 -6
v 3.5 0 -6
v -0.5 1 6
v 0.5 1 6
v -0.5 1 3
v 0.5 1 3
v -0.5 10 5
v 0.5 10 5
v -0.5 10 3
v 0.5 10 3
v -3.5 1 2
v 3.5 1 2
v -3.5 1 -5
v 3.5 1 -5
v -0.5 2 5
v 0.5 2 5
v -0.5 2 3
v 0.5 2 3
v -0.5 11 6
v 0.5 11 6
v -0.5 11 3
v 0.5 11 3
v -3.5 12 3
v 3.5 12 3
v -4.5 12 2
v -3.5 12 2
v 3.5 12 2
v 4.5 12 2
v -4.5 12 -5
v -3.5 12 -5
v 3.5 12 -5
v 4.5 12 -5
v -3.5 12 -6
v 3.5 12 -6

# faces
f 3/1/1 2/1/1 1/1/1
f 4/1/1 2/1/1 3/1/1
f 9/1/1 6/1/1 5/1/1
f 10/1/1 6/1/1 9/1/1
f 11/1/1 8/1/1 7/1/1
f 12/1/1 8/1/1 11/1/1
f 15/2/1 14/2/1 13/2/1
f 16/2/1 14/2/1 15/2/1
f 17/2/1 15/2/1 13/2/1
f 19/2/1 17/2/1 13/2/1
f 19/2/1 18/2/1 17/2/1
f 20/2/1 18/2/1 19/2/1
f 23/1/1 22/1/1 21/1/1
f 24/1/1 22/1/1 23/1/1
f 25/1/2 26/1/2 27/1/2
f 27/1/2 26/1/2 28/1/2
f 29/2/2 30/2/2 31/2/2
f 31/2/2 30/2/2 32/2/2
f 29/2/2 31/2/2 33/2/2
f 29/2/2 33/2/2 35/2/2
f 33/2/2 34/2/2 35/2/2
f 35/2/2 34/2/2 36/2/2
f 37/1/2 38/1/2 41/1/2
f 41/1/2 38/1/2 42/1/2
f 39/1/2 40/1/2 43/1/2
f 43/1/2 40/1/2 44/1/2
f 45/1/2 46/1/2 47/1/2
f 47/1/2 46/1/2 48/1/2
f 51/2/3 50/2/3 49/2/3
f 52/2/3 50/2/3 51/2/3
f 55/1/3 54/1/3 53/1/3
f 56/1/3 54/1/3 55/1/3
f 57/1/3 54/1/3 56/1/3
f 58/1/3 54/1/3 57/1/3
f 59/1/3 55/1/3 53/1/3
f 60/1/3 57/1/3 56/1/3
f 61/1/3 57/1/3 60/1/3
f 62/1/3 54/1/3 58/1/3
f 63/1/3 61/1/3 60/1/3
f 63/1/3 62/1/3 61/1/3
f 63/1/3 59/1/3 53/1/3
f 63/1/3 60/1/3 59/1/3
f 64/1/3 54/1/3 62/1/3
f 64/1/3 62/1/3 63/1/3
f 67/1/3 66/1/3 65/1/3
f 68/1/3 66/1/3 67/1/3
f 71/1/3 70/1/3 69/1/3
f 72/1/3 70/1/3 71/1/3
f 75/1/3 74/1/3 73/1/3
f 76/1/3 74/1/3 75/1/3
f 77/2/4 78/2/4 79/2/4
f 79/2/4 78/2/4 80/2/4
f 81/1/4 82/1/4 83/1/4
f 83/1/4 82/1/4 84/1/4
f 85/1/4 86/1/4 87/1/4
f 87/1/4 86/1/4 88/1/4
f 89/1/4 90/1/4 91/1/4
f 91/1/4 90/1/4 92/1/4
f 93/1/4 94/1/4 95/1/4
f 95/1/4 94/1/4 96/1/4
f 100/1/5 98/1/5 97/1/5
f 101/1/5 98/1/5 100/1/5
f 103/1/5 100/1/5 99/1/5
f 103/1/5 102/1/5 101/1/5
f 103/1/5 101/1/5 100/1/5
f 104/1/5 102/1/5 103/1/5
f 105/1/5 102/1/5 104/1/5
f 106/1/5 102/1/5 105/1/5
f 107/1/5 105/1/5 104/1/5
f 108/1/5 105/1/5 107/1/5
f 111/2/5 110/2/5 109/2/5
f 112/2/5 110/2/5 111/2/5
f 115/2/5 114/2/5 113/2/5
f 116/2/5 114/2/5 115/2/5
f 117/1/6 118/1/6 119/1/6
f 119/1/6 118/1/6 120/1/6
f 121/2/6 122/2/6 123/2/6
f 123/2/6 122/2/6 124/2/6
f 125/2/6 126/2/6 127/2/6
f 127/2/6 126/2/6 128/2/6
f 129/1/6 130/1/6 132/1/6
f 132/1/6 130/1/6 133/1/6
f 131/1/6 132/1/6 135/1/6
f 135/1/6 132/1/6 136/1/6
f 133/1/6 134/1/6 137/1/6
f 137/1/6 134/1/6 138/1/6
f 136/1/6 137/1/6 139/1/6
f 139/1/6 137/1/6 140/1/6
